<?xml version="1.0" encoding="utf-8"?>
<!-- Generator: Adobe Illustrator 25.3.1, SVG Export Plug-In . SVG Version: 6.00 Build 0)  -->
<svg version="1.1" id="Layer_1" xmlns="http://www.w3.org/2000/svg" xmlns:xlink="http://www.w3.org/1999/xlink" x="0px" y="0px"
	 viewBox="0 0 1366 510" style="enable-background:new 0 0 1366 510;" xml:space="preserve">
<style type="text/css">
	.st0{fill:#00499E;}
	.st1{fill:#8FC229;}
</style>
<g>
	<path class="st0" d="M0.07,234.51c0-29.48,0-52.8,0-76.12c0-3.26-0.23-6.56,0.13-9.79c0.82-7.39,2.9-9.26,10.67-9.28
		c9.28-0.02,18.57,0.45,27.85,0.47c34.98,0.06,69.96,0.08,104.95-0.01c6.03-0.01,12.18,0,18.07-1.08c6.61-1.21,8.81,2.03,8.86,7.4
		c0.19,20.05,0.07,40.11,0.07,60.17c0,5.74-3.74,6.8-8.42,6.79c-12.59-0.02-25.19,0-37.78,0c-13.53,0.01-27.06-0.17-40.58,0.1
		c-7.48,0.15-8.06,1.2-8.19,9.6c-0.14,9.01,0.21,10.24,8.12,10.36c24.12,0.35,48.26,0.57,72.36-0.22
		c11.28-0.37,14.41,1.01,14.54,12.47c0.19,17.26,0.18,34.52,0.01,51.77c-0.11,10.54-0.42,10.86-11.26,10.93
		c-22.85,0.15-45.71,0.05-68.56,0.06c-3.26,0-6.53,0-9.79,0.17c-4.26,0.21-5.62,3.01-5.08,6.71c2.66,18.26,8.75,34.92,20.73,49.49
		c17.21,20.93,39.62,31.66,65.76,35.44c5.76,0.83,8.33,2.74,8.29,8.59c-0.13,18.66,0.11,37.32-0.13,55.97
		c-0.1,7.79-1.14,8.66-9.21,8.73c-21.35,0.18-41.5-5.57-60.74-14.09c-30.54-13.54-55.34-34.35-72.73-62.98
		C14.15,373.39,5.02,349.08,2.1,321.88C-1.25,290.62,1.8,259.49,0.07,234.51z"/>
	<path class="st1" d="M192.94,434.4c0-8.86,0.42-17.74-0.13-26.56c-0.48-7.72,2.71-11.99,9.59-15.02
		c12.38-5.44,23.69-12.22,33.54-22.12c12.77-12.84,19.96-28.49,23.76-45.1c7.9-34.6-3.83-63.63-28.99-88.05
		c-9.28-9.01-19.57-15.74-31.96-18.99c-4.66-1.22-5.86-4-5.86-8.07c-0.01-20.98,0-41.96,0.01-62.93c0-5.71,2.37-6.75,7.98-5.45
		c24.26,5.64,46.36,15.02,66.75,29.99c33.46,24.57,55.4,56.35,63.73,96.61c11.76,56.81-0.99,107.87-40.38,151.27
		c-22.44,24.73-50.63,40.27-82.53,49.36c-3.07,0.87-6.44,0.98-9.66,0.94c-5.11-0.07-7.03-2.17-6.49-7.97
		c0.86-9.23,0.23-18.61,0.23-27.92C192.67,434.4,192.81,434.4,192.94,434.4z"/>
	<path class="st0" d="M556.17,311.07c0.69-23.73,1.66-47.45,1.86-71.18c0.04-5.49,1.12-7.8,6.62-7.73
		c8.85,0.12,17.71,0.01,26.56,0.07c4.17,0.03,6.88,1.52,7.65,6.25c3.71,22.88,7.65,45.73,11.55,68.58c0.23,1.34,0.72,2.64,1.09,3.96
		c0.44-1.25,1.04-2.47,1.31-3.76c4.65-22.25,9.61-44.45,13.68-66.81c1.22-6.69,4.2-8.53,10.18-8.34c6.05,0.2,12.12-0.08,18.17,0.06
		c11.01,0.26,11.28,0.45,11.39,12.34c0.18,18.64-0.17,37.29,0.25,55.92c0.53,23.69,1.7,47.37,2.36,71.06
		c0.14,4.88,1.96,11.73-4.21,13.44c-5.98,1.66-12.91,1.35-19.12,0.24c-4.94-0.89-4.51-6.36-4.54-10.56
		c-0.14-19.11-0.21-38.22-0.42-57.32c-0.05-4.06-0.61-8.11-0.94-12.17c-1.36,4.23-3.21,8.38-3.98,12.72
		c-3.23,18.27-5.88,36.64-9.24,54.89c-2.18,11.88-4.22,13.43-13.91,13.67c-10.35,0.25-11.91-0.48-13.95-10.97
		c-3.98-20.47-7.34-41.07-10.99-61.6c-0.65-3.64-1.35-7.28-2.24-10.87c-0.31-1.25-1.28-2.33-1.95-3.48
		c-0.23,1.35-0.65,2.69-0.66,4.04c-0.15,21.44-0.24,42.88-0.36,64.31c-0.02,3.26-0.03,6.53-0.14,9.78c-0.19,5.59-3.1,8.54-8.73,8.72
		c-1.86,0.06-3.73,0.1-5.59,0.08c-10.5-0.13-11.24-0.62-11.32-11c-0.17-21.44-0.05-42.88-0.05-64.32
		C556.39,311.08,556.28,311.08,556.17,311.07z"/>
	<path class="st0" d="M59.95,120.83c-35.35,2.47-59.6-31.32-59.6-59.4c0-39.38,34.39-61.66,61.29-61.67
		c28.56-0.01,59.45,27.51,59.29,61.96C120.79,92.01,91.5,125.02,59.95,120.83z"/>
	<path class="st0" d="M778.18,308.09c0,13.02,0.3,26.05-0.06,39.06c-0.7,24.72-15.78,39.32-40.65,39.55
		c-7.89,0.07-15.99,0.61-23.63-0.91c-15.28-3.04-27.29-18.6-27.92-37.45c-0.87-26.01-0.44-52.08-0.09-78.11
		c0.07-5.45,1.75-11.01,3.45-16.28c4-12.4,11.67-20.4,25.47-22.54c16.82-2.61,33.21-4.26,47.99,6.43
		c10.04,7.27,14.97,17.59,15.32,29.78c0.39,13.47,0.09,26.97,0.09,40.45C778.15,308.09,778.16,308.09,778.18,308.09z M741.61,308.76
		c0-12.06,0.17-24.12-0.05-36.18c-0.2-10.99-4.33-17.52-10.25-17.01c-5.8,0.5-8.99,5.99-9.03,16.42
		c-0.1,24.12-0.05,48.24-0.03,72.36c0,2.32-0.09,4.68,0.31,6.94c0.88,4.98,3.59,8.73,8.87,9.31c5.23,0.58,7.34-3.57,8.6-7.56
		c1.09-3.45,1.46-7.24,1.52-10.88C741.73,331.03,741.62,319.9,741.61,308.76z"/>
	<path class="st0" d="M794.78,294.12c0-16.77-0.11-33.54,0.04-50.31c0.1-11.28,0.36-11.39,11.99-11.64
		c3.26-0.07,6.52,0.04,9.78-0.03c14.63-0.33,14.66-0.34,14.67,14.8c0.03,31.21-0.06,62.42,0.13,93.64
		c0.03,4.54,0.25,9.69,2.38,13.42c1.68,2.95,6.43,5.68,9.79,5.64c2.31-0.03,5.46-4.62,6.61-7.76c1.21-3.32,0.61-7.35,0.62-11.07
		c0.04-32.14-0.02-64.29,0.09-96.43c0.04-11.75,0.31-11.94,11.44-12.17c6.05-0.13,12.11,0.02,18.17,0.06
		c4.54,0.03,6.86,2.27,6.87,6.87c0.01,3.73,0.1,7.45,0.1,11.18c0.01,28.88,0.22,57.77-0.13,86.65c-0.09,7.81-1.15,15.8-3.07,23.37
		c-4.31,16.99-15.74,25.68-33.27,26.36c-4.65,0.18-9.33-0.18-13.97,0.13c-26.2,1.78-41.09-14.9-42.05-40.99
		c-0.64-17.21-0.12-34.47-0.12-51.7C794.82,294.12,794.8,294.12,794.78,294.12z"/>
	<path class="st0" d="M527.5,386.32c-3.26,0-6.53,0.09-9.79-0.02c-4.9-0.18-7.65-2.79-8.4-7.65c-0.92-5.97-2.61-11.9-2.79-17.88
		c-0.23-7.66-4.9-7.69-10.38-7.71c-9.82-0.05-10.27,0.07-11.83,7.48c-1.05,4.99-1.94,10.02-2.72,15.07
		c-1.41,9.21-2.38,10.34-11.15,10.75c-5.12,0.24-10.27,0.28-15.38-0.03c-8.35-0.51-9.49-1.9-7.92-10.23
		c5.07-26.92,10.38-53.79,15.51-80.69c3.47-18.23,7.17-36.44,9.99-54.78c1.02-6.67,3.93-8.64,10.02-8.51
		c8.39,0.18,16.88,0.7,25.15-0.33c6.26-0.78,8.59,1.68,9.56,6.89c2.99,15.97,5.94,31.94,8.78,47.93
		c4.23,23.76,8.35,47.54,12.54,71.31c1.05,5.94,2.16,11.87,3.26,17.79c1.7,9.15,0.79,10.27-8.85,10.69
		c-1.86,0.08-3.73,0.01-5.6,0.01C527.5,386.38,527.5,386.35,527.5,386.32z M495.01,296.08c-0.68,0.4-1.1,0.53-1.32,0.81
		c-2.69,3.36-5.25,27.9-2.72,30.97c1.15,1.4,4.19,2.34,5.9,1.85c1.57-0.45,3.65-3.2,3.52-4.77c-0.69-8.65-1.92-17.27-3.16-25.87
		C497.07,297.97,495.76,297.05,495.01,296.08z"/>
	<path class="st0" d="M945.84,386.77c-31.18,1.83-41.73-18.98-42.69-44.83c-0.07-1.85,2.57-4.91,4.54-5.52
		c5.28-1.64,10.84-2.49,16.35-3.21c8.36-1.1,9.22-0.27,10.72,8.06c0.73,4.05,0.7,8.67,2.78,11.9c1.6,2.47,6.02,4.31,9.08,4.17
		c1.76-0.09,4.64-4.68,4.65-7.26c0.02-4.4-0.66-9.64-3.11-13.03c-5.12-7.08-11.4-13.36-17.57-19.61
		c-4.22-4.28-9.14-7.86-13.61-11.91c-15.99-14.47-15.3-33.13-11.76-51.78c1.71-9,8.95-15.2,17.18-19.18
		c12.18-5.89,25.04-6.73,38.08-3.27c10.19,2.7,17.04,9.1,20.08,19.32c0.79,2.67,1.61,5.33,2.25,8.03
		c3.69,15.46,2.36,17.22-13.98,18.63c-1.85,0.16-3.81-0.18-5.57,0.27c-6.21,1.6-9.9,0.57-9.29-7.05c0.45-5.59-1.94-10.22-7.47-12.04
		c-1.74-0.57-4.93,0.37-6.19,1.76c-3.9,4.33-3.26,9.79-0.87,14.38c2.31,4.44,5.64,8.5,9.14,12.14c8.69,9.03,18.16,17.33,26.52,26.64
		c10.46,11.66,14.63,25.85,12.85,41.41C986.19,370.16,972.25,388.97,945.84,386.77z"/>
	<path class="st1" d="M1203.54,307.73c0-21.45-0.11-42.9,0.05-64.34c0.08-10.59,0.44-10.87,11.22-11.04
		c10.25-0.16,20.53,0.37,30.77,0c19.89-0.73,36.15,15.36,33.92,33.95c-0.61,5.06-0.32,10.26-0.08,15.37
		c0.46,9.5-2.23,18.02-10.17,23.24c-5.78,3.8-5.15,8.12-3.82,13.08c4.45,16.61,9.07,33.17,13.67,49.74
		c0.62,2.24,1.59,4.39,2.17,6.64c1.3,4.98,0.83,9.4-4.77,11.46c-6.01,2.21-14.29,0.29-16.18-4.29c-2.48-6-4.26-12.31-6.03-18.58
		c-3.78-13.4-7.51-26.82-10.96-40.3c-1.46-5.71-4.03-9.44-10.51-8.53c-6.24,0.88-6.61,5.6-6.61,10.48
		c-0.01,10.26-0.01,20.51-0.01,30.77c0,6.53,0.29,13.07-0.12,19.57c-0.23,3.5-1.1,9.55-2.67,9.9c-5.18,1.14-11.09,1.1-16.15-0.41
		c-2.01-0.6-3.43-6.2-3.54-9.58c-0.42-12.11-0.17-24.24-0.17-36.36C1203.53,328.25,1203.53,317.99,1203.54,307.73z M1226.19,272.34
		c0,3.26-0.04,6.51,0.01,9.77c0.2,14.67,3.72,16.87,17.87,12.97c8-2.2,11.64-7.16,12.51-14.7c0.48-4.13,0.3-8.37,0.17-12.55
		c-0.34-11.23-5.72-17.1-16.64-18.37c-10.45-1.21-13.5,1.32-13.89,11.72C1226.08,264.89,1226.2,268.62,1226.19,272.34z"/>
	<path class="st0" d="M375.03,307.86c0-21.45-0.11-42.9,0.05-64.35c0.08-10.76,0.49-11.17,10.99-11.3c15.85-0.2,31.71-0.18,47.57,0
		c10.74,0.12,11.12,0.68,11.3,10.97c0.22,12.89-1.04,14.27-14.29,14.4c-20.81,0.2-18.83-2.52-18.96,20.01
		c-0.01,1.87,0.13,3.74,0.01,5.59c-0.41,6.12,2.69,8.45,8.45,8.06c0.93-0.06,1.88-0.11,2.79,0.03c5.28,0.82,13.02-2.87,15.28,3.1
		c2.32,6.11,1.05,13.7,0.67,20.61c-0.08,1.45-2.99,3.62-4.84,3.9c-4.1,0.64-8.37,0.21-12.56,0.39c-9.27,0.39-9.56,0.48-9.73,9.51
		c-0.24,12.59-0.08,25.18-0.09,37.77c0,3.26,0.12,6.53-0.02,9.79c-0.39,9.07-0.88,9.64-9.46,10.03c-4.65,0.21-9.33,0.15-13.99,0.04
		c-11.71-0.3-12.95-1.38-13.13-12.79c-0.2-12.59-0.05-25.18-0.05-37.77C375.03,326.51,375.03,317.18,375.03,307.86z"/>
	<path class="st1" d="M1038.45,308.98c0.01,13.98-0.38,27.98,0.13,41.94c0.42,11.53,6.87,16.66,18.29,15.85
		c7.92-0.56,13.61-6.34,14.77-15.83c0.62-5.06,0.44-10.24,0.29-15.36c-0.18-6.09,2.89-7.95,8.56-8.22c12.37-0.6,13.66,0.46,14,12.59
		c0.36,12.84-1.27,24.97-9.8,35.43c-11.68,14.32-27.28,12.74-42.43,9.81c-16.8-3.25-28.12-17.59-28.72-36.59
		c-0.83-26.07-0.52-52.19-0.04-78.28c0.12-6.33,2.13-12.89,4.47-18.86c4.12-10.47,11.37-16.95,23.15-19.89
		c11.62-2.9,22.32-1.45,32.79,2.19c14.14,4.91,18.5,17.37,20.36,30.83c0.57,4.12,0.25,8.38,0.16,12.57
		c-0.25,10.84-1.18,11.65-12.31,11.36c-9.32-0.24-9.76-0.72-10.19-10.71c-0.22-5.11,0.22-10.37-0.87-15.28
		c-2.14-9.69-9.02-14.2-18.38-13.08c-8.06,0.96-13.91,7.15-14.14,16.21C1038.19,280.08,1038.45,294.54,1038.45,308.98z"/>
	<path class="st1" d="M1146.71,232.3c10.85-0.15,11.98,0.44,14.59,12.27c6.79,30.74,13.24,61.56,19.88,92.34
		c2.54,11.77,5.42,23.47,7.79,35.27c2.25,11.23-2.39,15.71-13.77,14.12c-4.89-0.68-7.29-3.23-8.03-8.05
		c-1.13-7.32-2.58-14.59-3.95-21.87c-1.18-6.27-4.29-9.69-11.39-9.2c-13.85,0.95-19.59-4.45-21.56,16.93
		c-0.38,4.12-1.52,8.18-2.44,12.24c-2.04,8.98-11.36,13.56-19.11,9.08c-1.6-0.92-2.91-3.71-2.97-5.67
		c-0.13-4.12,0.28-8.35,1.14-12.39c8.77-41.19,17.72-82.34,26.53-123.52C1135.72,232.97,1136.13,232.45,1146.71,232.3z
		 M1146.26,330.27c11.13,0.01,11.32-0.02,9.91-9.68c-1.87-12.82-4.05-25.59-6.22-38.36c-0.2-1.17-1.27-2.19-1.93-3.28
		c-0.92,0.78-2.47,1.43-2.65,2.35c-2.85,14.53-5.65,29.07-8.06,43.67c-0.23,1.42,1.87,3.99,3.49,4.75
		C1142.75,330.64,1145.34,330.21,1146.26,330.27z"/>
	<path class="st1" d="M1301.31,308.04c0-21.44-0.11-42.88,0.05-64.32c0.08-10.92,0.42-11.23,10.83-11.38
		c13.05-0.18,26.1,0.11,39.15-0.09c5.42-0.08,8.71,1.62,9.97,7.27c1.39,6.25,0.22,9.1-6.09,9.57c-7.88,0.59-15.83,0.34-23.75,0.3
		c-5.29-0.03-7.54,2.49-7.49,7.69c0.1,10.72,0.09,21.44,0.01,32.16c-0.04,5.26,2.43,7.63,7.65,7.53c4.66-0.09,9.34-0.24,13.97,0.16
		c7.13,0.62,9.74,4.07,9.03,11.14c-0.63,6.21-3.81,8.59-10.59,7.91c-20.06-2.02-20.07-2.02-20.08,17.36
		c0,8.85,0.06,17.71,0.07,26.56c0,4.59,2.27,6.82,6.85,6.84c7.46,0.02,14.93-0.19,22.36,0.21c8.06,0.43,8.81,1.61,8.61,10.48
		c-0.17,7.4-0.98,8.63-8.88,8.82c-13.97,0.32-27.96,0.28-41.94,0.05c-8.96-0.15-9.54-0.63-9.63-9.75
		c-0.23-22.83-0.07-45.67-0.07-68.51C1301.32,308.04,1301.32,308.04,1301.31,308.04z"/>
	<path class="st0" d="M1107.99,454.71c0.32-5.72-0.11-10.71-5.39-14.88c-1.97-1.56-2.8-7.96-1.29-9.8
		c3.37-4.09,5.95-7.53,5.25-13.21c-0.14-1.16,3.82-3.95,5.97-4.04c4.5-0.17,11.31,0.09,11.12,5.62
		c-0.39,11.54,7.11,10.11,13.72,9.82c20.72-0.89,17.58-0.28,23.99,17.34c0.64,1.75,0.9,3.69,1.84,5.25c1.36,2.27,3.17,4.28,4.79,6.4
		c1.23-2.34,2.63-4.61,3.67-7.03c2.02-4.69,4-9.42,5.72-14.23c2.23-6.28,6.66-8.43,13.02-7.94c6.21,0.48,7.54,1.98,5.18,7.68
		c-5.69,13.74-11.68,27.36-17.5,41.04c-3.64,8.55-7.56,17.01-10.68,25.76c-2.14,6.01-6.12,7.57-11.79,7.41
		c-7.46-0.21-8.94-2.37-6.06-9.58c1.03-2.59,2.29-5.1,3.61-7.56c3.52-6.58,3.95-13.33,1.05-20.18c-3.44-8.13-7.06-16.19-10.58-24.29
		c-1.66-3.82-3.24-7.66-4.86-11.5c-3.29,1.84-6.39,4.65-9.9,5.3c-5.78,1.07-6.31,4.66-6.1,9.1c0.38,8.01-2.28,17.38,9.91,19.95
		c1.66,0.35,3.13,5.09,3.36,7.91c0.33,4.06-2.93,5.12-6.53,5.54c-15.98,1.84-23.93-6.43-21.91-22.89
		C1107.9,459.38,1107.88,457.04,1107.99,454.71z"/>
	<path class="st0" d="M1365.93,447.07c0,9.3,0.19,18.6-0.05,27.89c-0.22,8.44-2.11,10.85-9.72,9.31c-7.5-1.51-14.49-0.13-21.75,0.31
		c-16.7,1-27.19-7.45-29.23-24.97c-1.63-13.98,5.02-29.42,21.66-32.39c5.17-0.92,10.92,0.4,16.21,1.56
		c4.45,0.98,6.03-0.16,5.84-4.52c-0.1-2.32,0.09-4.65-0.01-6.97c-0.23-5.65,1.95-8.68,8.07-8.59c7.07,0.11,8.68,1.25,8.9,9.09
		C1366.13,427.55,1365.92,437.31,1365.93,447.07z M1335.88,442.44c-6.68-0.15-13.62,5.92-14,12.27
		c-0.41,6.82,6.74,15.21,13.09,15.36c6.19,0.15,13.32-6.63,13.74-13.07C1349.23,449.06,1343.55,442.62,1335.88,442.44z"/>
	<path class="st0" d="M1044.02,449.1c0.01-9.28,0.02-18.56,0-27.84c-0.01-5.37,2.17-9.49,7.9-9.33c9.65,0.26,19.66-0.07,28.82,2.42
		c15.78,4.28,21.29,20.34,12.92,34.36c-1.33,2.23-3.74,4.08-6.06,5.4c-2.35,1.34-5.17,1.91-7.84,2.62
		c-5.73,1.51-13.12,1.25-16.74,4.84c-2.98,2.95-1.72,10.39-1.95,15.86c-0.24,5.41-3.11,7.09-8.08,7.17
		c-5.45,0.09-9.05-1.39-8.99-7.65C1044.07,467.66,1044.01,458.38,1044.02,449.1z M1061.06,434.92c0.22,4.44-0.96,9.63,6.19,9.89
		c6.86,0.24,12.33-2.86,12.82-7.62c0.61-5.92-5.55-11.04-13.17-11C1060.62,426.22,1061.21,430.79,1061.06,434.92z"/>
	<path class="st0" d="M1295.23,484.49c-13.69,0.27-20.1-4.96-21.6-16.08c-0.68-5.03-0.25-10.2-0.32-15.31
		c-0.06-4.62,0.07-8.79-4.57-12.29c-4.58-3.45-5.21-8.35,0.33-12.66c1.9-1.48,3.8-4.1,4.02-6.37c0.59-5.91,2.55-9.96,9.14-9.81
		c6.82,0.15,7.8,4.92,8.54,10.46c0.27,2.03,2.84,4.84,4.84,5.33c4.5,1.1,6.25,3.38,6.1,7.76c-0.13,3.69-1.49,6.34-5.46,6.78
		c-4.88,0.54-5.83,3.79-5.8,7.88c0.03,4.18-0.01,8.36,0.02,12.54c0.02,3.44,0.55,6.79,4.74,7.29c6.49,0.78,7.75,5.26,5.93,9.96
		C1300.14,482.53,1296.06,483.9,1295.23,484.49z"/>
	<path class="st0" d="M1225.86,449.42c0-9.32-0.25-18.65,0.08-27.95c0.26-7.09,3.36-10,9.07-9.59c5.97,0.43,7.75,4.31,7.76,9.57
		c0.02,13.05-0.12,26.1,0.11,39.14c0.16,9.09,0.38,9.11,9.51,9.72c2.32,0.15,4.66,0.05,6.98,0.2c3.96,0.25,5.67,2.57,5.81,6.41
		c0.15,4.34-1.31,7.42-6.1,7.5c-8.85,0.14-17.7,0.08-26.55,0.08c-4.71,0-6.62-2.71-6.63-7.11c-0.02-9.32-0.01-18.64-0.01-27.96
		C1225.88,449.42,1225.87,449.42,1225.86,449.42z"/>
</g>
</svg>
