<?xml version="1.0" encoding="utf-8"?>
<!-- Generator: Adobe Illustrator 25.3.1, SVG Export Plug-In . SVG Version: 6.00 Build 0)  -->
<svg version="1.1" id="Layer_1" xmlns="http://www.w3.org/2000/svg" xmlns:xlink="http://www.w3.org/1999/xlink" x="0px" y="0px"
	 viewBox="0 0 1366 510" style="enable-background:new 0 0 1366 510;" xml:space="preserve">
<style type="text/css">
	.st0{fill:#FFFFFF;}
</style>
<g>
	<path class="st0" d="M0.1,234.5c0-29.5,0-52.8,0-76.1c0-3.3-0.2-6.6,0.1-9.8c0.8-7.4,2.9-9.3,10.7-9.3c9.3,0,18.6,0.4,27.9,0.5
		c35,0.1,70,0.1,104.9,0c6,0,12.2,0,18.1-1.1c6.6-1.2,8.8,2,8.9,7.4c0.2,20.1,0.1,40.1,0.1,60.2c0,5.7-3.7,6.8-8.4,6.8
		c-12.6,0-25.2,0-37.8,0c-13.5,0-27.1-0.2-40.6,0.1c-7.5,0.1-8.1,1.2-8.2,9.6c-0.1,9,0.2,10.2,8.1,10.4c24.1,0.4,48.3,0.6,72.4-0.2
		c11.3-0.4,14.4,1,14.5,12.5c0.2,17.3,0.2,34.5,0,51.8c-0.1,10.5-0.4,10.9-11.3,10.9c-22.9,0.1-45.7,0-68.6,0.1
		c-3.3,0-6.5,0-9.8,0.2c-4.3,0.2-5.6,3-5.1,6.7c2.7,18.3,8.8,34.9,20.7,49.5c17.2,20.9,39.6,31.7,65.8,35.4c5.8,0.8,8.3,2.7,8.3,8.6
		c-0.1,18.7,0.1,37.3-0.1,56c-0.1,7.8-1.1,8.7-9.2,8.7c-21.4,0.2-41.5-5.6-60.7-14.1c-30.5-13.5-55.3-34.4-72.7-63
		c-13.9-22.8-23-47.1-25.9-74.3C-1.2,290.6,1.8,259.5,0.1,234.5z"/>
	<path class="st0" d="M192.9,434.4c0-8.9,0.4-17.7-0.1-26.6c-0.5-7.7,2.7-12,9.6-15c12.4-5.4,23.7-12.2,33.5-22.1
		c12.8-12.8,20-28.5,23.8-45.1c7.9-34.6-3.8-63.6-29-88.1c-9.3-9-19.6-15.7-32-19c-4.7-1.2-5.9-4-5.9-8.1c0-21,0-42,0-62.9
		c0-5.7,2.4-6.8,8-5.4c24.3,5.6,46.4,15,66.8,30c33.5,24.6,55.4,56.4,63.7,96.6c11.8,56.8-1,107.9-40.4,151.3
		c-22.4,24.7-50.6,40.3-82.5,49.4c-3.1,0.9-6.4,1-9.7,0.9c-5.1-0.1-7-2.2-6.5-8c0.9-9.2,0.2-18.6,0.2-27.9
		C192.7,434.4,192.8,434.4,192.9,434.4z"/>
	<path class="st0" d="M556.2,311.1c0.7-23.7,1.7-47.5,1.9-71.2c0-5.5,1.1-7.8,6.6-7.7c8.8,0.1,17.7,0,26.6,0.1
		c4.2,0,6.9,1.5,7.7,6.2c3.7,22.9,7.7,45.7,11.5,68.6c0.2,1.3,0.7,2.6,1.1,4c0.4-1.2,1-2.5,1.3-3.8c4.7-22.2,9.6-44.5,13.7-66.8
		c1.2-6.7,4.2-8.5,10.2-8.3c6,0.2,12.1-0.1,18.2,0.1c11,0.3,11.3,0.4,11.4,12.3c0.2,18.6-0.2,37.3,0.2,55.9
		c0.5,23.7,1.7,47.4,2.4,71.1c0.1,4.9,2,11.7-4.2,13.4c-6,1.7-12.9,1.4-19.1,0.2c-4.9-0.9-4.5-6.4-4.5-10.6
		c-0.1-19.1-0.2-38.2-0.4-57.3c0-4.1-0.6-8.1-0.9-12.2c-1.4,4.2-3.2,8.4-4,12.7c-3.2,18.3-5.9,36.6-9.2,54.9
		c-2.2,11.9-4.2,13.4-13.9,13.7c-10.3,0.2-11.9-0.5-14-11c-4-20.5-7.3-41.1-11-61.6c-0.7-3.6-1.3-7.3-2.2-10.9
		c-0.3-1.2-1.3-2.3-2-3.5c-0.2,1.4-0.7,2.7-0.7,4c-0.2,21.4-0.2,42.9-0.4,64.3c0,3.3,0,6.5-0.1,9.8c-0.2,5.6-3.1,8.5-8.7,8.7
		c-1.9,0.1-3.7,0.1-5.6,0.1c-10.5-0.1-11.2-0.6-11.3-11c-0.2-21.4,0-42.9,0-64.3C556.4,311.1,556.3,311.1,556.2,311.1z"/>
	<path class="st0" d="M60,120.8C24.6,123.3,0.4,89.5,0.4,61.4C0.4,22,34.7-0.2,61.6-0.2c28.6,0,59.5,27.5,59.3,62
		C120.8,92,91.5,125,60,120.8z"/>
	<path class="st0" d="M778.2,308.1c0,13,0.3,26-0.1,39.1c-0.7,24.7-15.8,39.3-40.7,39.5c-7.9,0.1-16,0.6-23.6-0.9
		c-15.3-3-27.3-18.6-27.9-37.5c-0.9-26-0.4-52.1-0.1-78.1c0.1-5.5,1.8-11,3.5-16.3c4-12.4,11.7-20.4,25.5-22.5
		c16.8-2.6,33.2-4.3,48,6.4c10,7.3,15,17.6,15.3,29.8C778.4,281.1,778.1,294.6,778.2,308.1C778.2,308.1,778.2,308.1,778.2,308.1z
		 M741.6,308.8c0-12.1,0.2-24.1,0-36.2c-0.2-11-4.3-17.5-10.2-17c-5.8,0.5-9,6-9,16.4c-0.1,24.1,0,48.2,0,72.4
		c0,2.3-0.1,4.7,0.3,6.9c0.9,5,3.6,8.7,8.9,9.3c5.2,0.6,7.3-3.6,8.6-7.6c1.1-3.5,1.5-7.2,1.5-10.9
		C741.7,331,741.6,319.9,741.6,308.8z"/>
	<path class="st0" d="M794.8,294.1c0-16.8-0.1-33.5,0-50.3c0.1-11.3,0.4-11.4,12-11.6c3.3-0.1,6.5,0,9.8,0
		c14.6-0.3,14.7-0.3,14.7,14.8c0,31.2-0.1,62.4,0.1,93.6c0,4.5,0.2,9.7,2.4,13.4c1.7,3,6.4,5.7,9.8,5.6c2.3,0,5.5-4.6,6.6-7.8
		c1.2-3.3,0.6-7.4,0.6-11.1c0-32.1,0-64.3,0.1-96.4c0-11.8,0.3-11.9,11.4-12.2c6-0.1,12.1,0,18.2,0.1c4.5,0,6.9,2.3,6.9,6.9
		c0,3.7,0.1,7.4,0.1,11.2c0,28.9,0.2,57.8-0.1,86.6c-0.1,7.8-1.2,15.8-3.1,23.4c-4.3,17-15.7,25.7-33.3,26.4
		c-4.7,0.2-9.3-0.2-14,0.1c-26.2,1.8-41.1-14.9-42-41C794.3,328.6,794.8,311.4,794.8,294.1C794.8,294.1,794.8,294.1,794.8,294.1z"/>
	<path class="st0" d="M527.5,386.3c-3.3,0-6.5,0.1-9.8,0c-4.9-0.2-7.6-2.8-8.4-7.6c-0.9-6-2.6-11.9-2.8-17.9
		c-0.2-7.7-4.9-7.7-10.4-7.7c-9.8,0-10.3,0.1-11.8,7.5c-1,5-1.9,10-2.7,15.1c-1.4,9.2-2.4,10.3-11.1,10.8c-5.1,0.2-10.3,0.3-15.4,0
		c-8.4-0.5-9.5-1.9-7.9-10.2c5.1-26.9,10.4-53.8,15.5-80.7c3.5-18.2,7.2-36.4,10-54.8c1-6.7,3.9-8.6,10-8.5
		c8.4,0.2,16.9,0.7,25.1-0.3c6.3-0.8,8.6,1.7,9.6,6.9c3,16,5.9,31.9,8.8,47.9c4.2,23.8,8.3,47.5,12.5,71.3c1,5.9,2.2,11.9,3.3,17.8
		c1.7,9.1,0.8,10.3-8.8,10.7C531.2,386.5,529.4,386.4,527.5,386.3C527.5,386.4,527.5,386.4,527.5,386.3z M495,296.1
		c-0.7,0.4-1.1,0.5-1.3,0.8c-2.7,3.4-5.2,27.9-2.7,31c1.1,1.4,4.2,2.3,5.9,1.9c1.6-0.5,3.6-3.2,3.5-4.8c-0.7-8.6-1.9-17.3-3.2-25.9
		C497.1,298,495.8,297,495,296.1z"/>
	<path class="st0" d="M945.8,386.8c-31.2,1.8-41.7-19-42.7-44.8c-0.1-1.9,2.6-4.9,4.5-5.5c5.3-1.6,10.8-2.5,16.3-3.2
		c8.4-1.1,9.2-0.3,10.7,8.1c0.7,4,0.7,8.7,2.8,11.9c1.6,2.5,6,4.3,9.1,4.2c1.8-0.1,4.6-4.7,4.7-7.3c0-4.4-0.7-9.6-3.1-13
		c-5.1-7.1-11.4-13.4-17.6-19.6c-4.2-4.3-9.1-7.9-13.6-11.9c-16-14.5-15.3-33.1-11.8-51.8c1.7-9,9-15.2,17.2-19.2
		c12.2-5.9,25-6.7,38.1-3.3c10.2,2.7,17,9.1,20.1,19.3c0.8,2.7,1.6,5.3,2.2,8c3.7,15.5,2.4,17.2-14,18.6c-1.8,0.2-3.8-0.2-5.6,0.3
		c-6.2,1.6-9.9,0.6-9.3-7c0.5-5.6-1.9-10.2-7.5-12c-1.7-0.6-4.9,0.4-6.2,1.8c-3.9,4.3-3.3,9.8-0.9,14.4c2.3,4.4,5.6,8.5,9.1,12.1
		c8.7,9,18.2,17.3,26.5,26.6c10.5,11.7,14.6,25.9,12.8,41.4C986.2,370.2,972.2,389,945.8,386.8z"/>
	<path class="st0" d="M1203.5,307.7c0-21.5-0.1-42.9,0.1-64.3c0.1-10.6,0.4-10.9,11.2-11c10.2-0.2,20.5,0.4,30.8,0
		c19.9-0.7,36.2,15.4,33.9,33.9c-0.6,5.1-0.3,10.3-0.1,15.4c0.5,9.5-2.2,18-10.2,23.2c-5.8,3.8-5.2,8.1-3.8,13.1
		c4.4,16.6,9.1,33.2,13.7,49.7c0.6,2.2,1.6,4.4,2.2,6.6c1.3,5,0.8,9.4-4.8,11.5c-6,2.2-14.3,0.3-16.2-4.3c-2.5-6-4.3-12.3-6-18.6
		c-3.8-13.4-7.5-26.8-11-40.3c-1.5-5.7-4-9.4-10.5-8.5c-6.2,0.9-6.6,5.6-6.6,10.5c0,10.3,0,20.5,0,30.8c0,6.5,0.3,13.1-0.1,19.6
		c-0.2,3.5-1.1,9.5-2.7,9.9c-5.2,1.1-11.1,1.1-16.2-0.4c-2-0.6-3.4-6.2-3.5-9.6c-0.4-12.1-0.2-24.2-0.2-36.4
		C1203.5,328.2,1203.5,318,1203.5,307.7z M1226.2,272.3c0,3.3,0,6.5,0,9.8c0.2,14.7,3.7,16.9,17.9,13c8-2.2,11.6-7.2,12.5-14.7
		c0.5-4.1,0.3-8.4,0.2-12.5c-0.3-11.2-5.7-17.1-16.6-18.4c-10.4-1.2-13.5,1.3-13.9,11.7C1226.1,264.9,1226.2,268.6,1226.2,272.3z"/>
	<path class="st0" d="M375,307.9c0-21.5-0.1-42.9,0-64.4c0.1-10.8,0.5-11.2,11-11.3c15.9-0.2,31.7-0.2,47.6,0
		c10.7,0.1,11.1,0.7,11.3,11c0.2,12.9-1,14.3-14.3,14.4c-20.8,0.2-18.8-2.5-19,20c0,1.9,0.1,3.7,0,5.6c-0.4,6.1,2.7,8.5,8.5,8.1
		c0.9-0.1,1.9-0.1,2.8,0c5.3,0.8,13-2.9,15.3,3.1c2.3,6.1,1,13.7,0.7,20.6c-0.1,1.5-3,3.6-4.8,3.9c-4.1,0.6-8.4,0.2-12.6,0.4
		c-9.3,0.4-9.6,0.5-9.7,9.5c-0.2,12.6-0.1,25.2-0.1,37.8c0,3.3,0.1,6.5,0,9.8c-0.4,9.1-0.9,9.6-9.5,10c-4.6,0.2-9.3,0.1-14,0
		c-11.7-0.3-13-1.4-13.1-12.8c-0.2-12.6,0-25.2,0-37.8C375,326.5,375,317.2,375,307.9z"/>
	<path class="st0" d="M1038.4,309c0,14-0.4,28,0.1,41.9c0.4,11.5,6.9,16.7,18.3,15.9c7.9-0.6,13.6-6.3,14.8-15.8
		c0.6-5.1,0.4-10.2,0.3-15.4c-0.2-6.1,2.9-8,8.6-8.2c12.4-0.6,13.7,0.5,14,12.6c0.4,12.8-1.3,25-9.8,35.4
		c-11.7,14.3-27.3,12.7-42.4,9.8c-16.8-3.2-28.1-17.6-28.7-36.6c-0.8-26.1-0.5-52.2,0-78.3c0.1-6.3,2.1-12.9,4.5-18.9
		c4.1-10.5,11.4-16.9,23.1-19.9c11.6-2.9,22.3-1.4,32.8,2.2c14.1,4.9,18.5,17.4,20.4,30.8c0.6,4.1,0.2,8.4,0.2,12.6
		c-0.2,10.8-1.2,11.6-12.3,11.4c-9.3-0.2-9.8-0.7-10.2-10.7c-0.2-5.1,0.2-10.4-0.9-15.3c-2.1-9.7-9-14.2-18.4-13.1
		c-8.1,1-13.9,7.2-14.1,16.2C1038.2,280.1,1038.4,294.5,1038.4,309z"/>
	<path class="st0" d="M1146.7,232.3c10.8-0.1,12,0.4,14.6,12.3c6.8,30.7,13.2,61.6,19.9,92.3c2.5,11.8,5.4,23.5,7.8,35.3
		c2.2,11.2-2.4,15.7-13.8,14.1c-4.9-0.7-7.3-3.2-8-8c-1.1-7.3-2.6-14.6-3.9-21.9c-1.2-6.3-4.3-9.7-11.4-9.2
		c-13.8,1-19.6-4.5-21.6,16.9c-0.4,4.1-1.5,8.2-2.4,12.2c-2,9-11.4,13.6-19.1,9.1c-1.6-0.9-2.9-3.7-3-5.7c-0.1-4.1,0.3-8.4,1.1-12.4
		c8.8-41.2,17.7-82.3,26.5-123.5C1135.7,233,1136.1,232.4,1146.7,232.3z M1146.3,330.3c11.1,0,11.3,0,9.9-9.7
		c-1.9-12.8-4.1-25.6-6.2-38.4c-0.2-1.2-1.3-2.2-1.9-3.3c-0.9,0.8-2.5,1.4-2.7,2.4c-2.8,14.5-5.7,29.1-8.1,43.7
		c-0.2,1.4,1.9,4,3.5,4.8C1142.8,330.6,1145.3,330.2,1146.3,330.3z"/>
	<path class="st0" d="M1301.3,308c0-21.4-0.1-42.9,0.1-64.3c0.1-10.9,0.4-11.2,10.8-11.4c13.1-0.2,26.1,0.1,39.2-0.1
		c5.4-0.1,8.7,1.6,10,7.3c1.4,6.2,0.2,9.1-6.1,9.6c-7.9,0.6-15.8,0.3-23.8,0.3c-5.3,0-7.5,2.5-7.5,7.7c0.1,10.7,0.1,21.4,0,32.2
		c0,5.3,2.4,7.6,7.7,7.5c4.7-0.1,9.3-0.2,14,0.2c7.1,0.6,9.7,4.1,9,11.1c-0.6,6.2-3.8,8.6-10.6,7.9c-20.1-2-20.1-2-20.1,17.4
		c0,8.9,0.1,17.7,0.1,26.6c0,4.6,2.3,6.8,6.8,6.8c7.5,0,14.9-0.2,22.4,0.2c8.1,0.4,8.8,1.6,8.6,10.5c-0.2,7.4-1,8.6-8.9,8.8
		c-14,0.3-28,0.3-41.9,0c-9-0.1-9.5-0.6-9.6-9.8C1301.2,353.7,1301.3,330.9,1301.3,308C1301.3,308,1301.3,308,1301.3,308z"/>
	<path class="st0" d="M1108,454.7c0.3-5.7-0.1-10.7-5.4-14.9c-2-1.6-2.8-8-1.3-9.8c3.4-4.1,5.9-7.5,5.2-13.2c-0.1-1.2,3.8-4,6-4
		c4.5-0.2,11.3,0.1,11.1,5.6c-0.4,11.5,7.1,10.1,13.7,9.8c20.7-0.9,17.6-0.3,24,17.3c0.6,1.8,0.9,3.7,1.8,5.2
		c1.4,2.3,3.2,4.3,4.8,6.4c1.2-2.3,2.6-4.6,3.7-7c2-4.7,4-9.4,5.7-14.2c2.2-6.3,6.7-8.4,13-7.9c6.2,0.5,7.5,2,5.2,7.7
		c-5.7,13.7-11.7,27.4-17.5,41c-3.6,8.5-7.6,17-10.7,25.8c-2.1,6-6.1,7.6-11.8,7.4c-7.5-0.2-8.9-2.4-6.1-9.6c1-2.6,2.3-5.1,3.6-7.6
		c3.5-6.6,3.9-13.3,1.1-20.2c-3.4-8.1-7.1-16.2-10.6-24.3c-1.7-3.8-3.2-7.7-4.9-11.5c-3.3,1.8-6.4,4.6-9.9,5.3
		c-5.8,1.1-6.3,4.7-6.1,9.1c0.4,8-2.3,17.4,9.9,20c1.7,0.4,3.1,5.1,3.4,7.9c0.3,4.1-2.9,5.1-6.5,5.5c-16,1.8-23.9-6.4-21.9-22.9
		C1107.9,459.4,1107.9,457,1108,454.7z"/>
	<path class="st0" d="M1365.9,447.1c0,9.3,0.2,18.6-0.1,27.9c-0.2,8.4-2.1,10.9-9.7,9.3c-7.5-1.5-14.5-0.1-21.8,0.3
		c-16.7,1-27.2-7.5-29.2-25c-1.6-14,5-29.4,21.7-32.4c5.2-0.9,10.9,0.4,16.2,1.6c4.4,1,6-0.2,5.8-4.5c-0.1-2.3,0.1-4.6,0-7
		c-0.2-5.6,1.9-8.7,8.1-8.6c7.1,0.1,8.7,1.2,8.9,9.1C1366.1,427.5,1365.9,437.3,1365.9,447.1z M1335.9,442.4
		c-6.7-0.1-13.6,5.9-14,12.3c-0.4,6.8,6.7,15.2,13.1,15.4c6.2,0.1,13.3-6.6,13.7-13.1C1349.2,449.1,1343.6,442.6,1335.9,442.4z"/>
	<path class="st0" d="M1044,449.1c0-9.3,0-18.6,0-27.8c0-5.4,2.2-9.5,7.9-9.3c9.7,0.3,19.7-0.1,28.8,2.4
		c15.8,4.3,21.3,20.3,12.9,34.4c-1.3,2.2-3.7,4.1-6.1,5.4c-2.3,1.3-5.2,1.9-7.8,2.6c-5.7,1.5-13.1,1.2-16.7,4.8
		c-3,3-1.7,10.4-1.9,15.9c-0.2,5.4-3.1,7.1-8.1,7.2c-5.4,0.1-9.1-1.4-9-7.6C1044.1,467.7,1044,458.4,1044,449.1z M1061.1,434.9
		c0.2,4.4-1,9.6,6.2,9.9c6.9,0.2,12.3-2.9,12.8-7.6c0.6-5.9-5.6-11-13.2-11C1060.6,426.2,1061.2,430.8,1061.1,434.9z"/>
	<path class="st0" d="M1295.2,484.5c-13.7,0.3-20.1-5-21.6-16.1c-0.7-5-0.2-10.2-0.3-15.3c-0.1-4.6,0.1-8.8-4.6-12.3
		c-4.6-3.5-5.2-8.4,0.3-12.7c1.9-1.5,3.8-4.1,4-6.4c0.6-5.9,2.6-10,9.1-9.8c6.8,0.1,7.8,4.9,8.5,10.5c0.3,2,2.8,4.8,4.8,5.3
		c4.5,1.1,6.2,3.4,6.1,7.8c-0.1,3.7-1.5,6.3-5.5,6.8c-4.9,0.5-5.8,3.8-5.8,7.9c0,4.2,0,8.4,0,12.5c0,3.4,0.6,6.8,4.7,7.3
		c6.5,0.8,7.8,5.3,5.9,10C1300.1,482.5,1296.1,483.9,1295.2,484.5z"/>
	<path class="st0" d="M1225.9,449.4c0-9.3-0.2-18.6,0.1-28c0.3-7.1,3.4-10,9.1-9.6c6,0.4,7.8,4.3,7.8,9.6c0,13-0.1,26.1,0.1,39.1
		c0.2,9.1,0.4,9.1,9.5,9.7c2.3,0.1,4.7,0,7,0.2c4,0.2,5.7,2.6,5.8,6.4c0.2,4.3-1.3,7.4-6.1,7.5c-8.8,0.1-17.7,0.1-26.6,0.1
		c-4.7,0-6.6-2.7-6.6-7.1C1225.9,468.1,1225.9,458.8,1225.9,449.4C1225.9,449.4,1225.9,449.4,1225.9,449.4z"/>
</g>
</svg>
